<svg width="64" height="58" viewBox="0 0 64 58" fill="none" xmlns="http://www.w3.org/2000/svg">
<path d="M49.088 9.98861C48.3285 9.98861 47.5861 10.1918 46.9546 10.5724C46.3231 10.9531 45.8309 11.4941 45.5403 12.1271C45.2497 12.7602 45.1736 13.4567 45.3218 14.1287C45.47 14.8007 45.8357 15.418 46.3727 15.9025C46.9097 16.3869 47.594 16.7169 48.3389 16.8506C49.0837 16.9842 49.8558 16.9156 50.5575 16.6534C51.2592 16.3912 51.8589 15.9472 52.2808 15.3775C52.7028 14.8078 52.928 14.138 52.928 13.4529C52.928 12.5341 52.5234 11.6529 51.8033 11.0033C51.0831 10.3536 50.1064 9.98861 49.088 9.98861ZM63.808 16.9749C63.7458 14.5796 63.2485 12.2098 62.336 9.95974C61.5223 8.03457 60.256 6.29132 58.624 4.84996C57.0394 3.37022 55.1026 2.23495 52.96 1.53005C50.4725 0.681768 47.8427 0.222896 45.184 0.173213C41.792 -1.61317e-07 40.704 0 32 0C23.296 0 22.208 -1.61317e-07 18.816 0.173213C16.1573 0.222896 13.5275 0.681768 11.04 1.53005C8.90136 2.24209 6.96619 3.37638 5.376 4.84996C3.73576 6.27948 2.47736 8.0268 1.696 9.95974C0.755715 12.2038 0.247072 14.5763 0.192 16.9749C-1.78814e-07 20.035 0 21.0165 0 28.8688C0 36.7211 -1.78814e-07 37.7027 0.192 40.7628C0.247072 43.1613 0.755715 45.5338 1.696 47.7779C2.47736 49.7108 3.73576 51.4581 5.376 52.8876C6.96619 54.3612 8.90136 55.4955 11.04 56.2076C13.5275 57.0558 16.1573 57.5147 18.816 57.5644C22.208 57.7376 23.296 57.7376 32 57.7376C40.704 57.7376 41.792 57.7376 45.184 57.5644C47.8427 57.5147 50.4725 57.0558 52.96 56.2076C55.1026 55.5027 57.0394 54.3674 58.624 52.8876C60.2632 51.4517 61.5307 49.7069 62.336 47.7779C63.2485 45.5278 63.7458 43.158 63.808 40.7628C63.808 37.7027 64 36.7211 64 28.8688C64 21.0165 64 20.035 63.808 16.9749ZM58.048 40.4163C58.0247 42.2488 57.6568 44.0645 56.96 45.7859C56.4491 47.0423 55.6284 48.1775 54.56 49.1058C53.5221 50.06 52.2663 50.7988 50.88 51.271C48.9718 51.8996 46.9593 52.2315 44.928 52.2525C41.728 52.3969 40.544 52.4257 32.128 52.4257C23.712 52.4257 22.528 52.4258 19.328 52.2525C17.2189 52.2882 15.1187 51.9952 13.12 51.3865C11.7945 50.8901 10.5963 50.1532 9.6 49.2213C8.53788 48.2939 7.7275 47.1577 7.232 45.9014C6.45074 44.1553 6.01742 42.2984 5.952 40.4163C5.952 37.5294 5.76 36.4613 5.76 28.8688C5.76 21.2763 5.76 20.2082 5.952 17.3213C5.96634 15.4479 6.34544 13.5913 7.072 11.8362C7.63535 10.6177 8.50005 9.53149 9.6 8.66064C10.5722 7.66804 11.7737 6.87971 13.12 6.35114C15.0706 5.71615 17.1264 5.38426 19.2 5.3696C22.4 5.3696 23.584 5.19638 32 5.19638C40.416 5.19638 41.6 5.19638 44.8 5.3696C46.8313 5.39062 48.8438 5.72251 50.752 6.35114C52.2062 6.83802 53.5113 7.62958 54.56 8.66064C55.6086 9.54743 56.428 10.6316 56.96 11.8362C57.6712 13.5941 58.0393 15.4499 58.048 17.3213C58.208 20.2082 58.24 21.2763 58.24 28.8688C58.24 36.4613 58.208 37.5294 58.048 40.4163ZM32 14.0591C28.7546 14.0648 25.5839 14.9382 22.8885 16.569C20.1931 18.1998 18.094 20.5147 16.8564 23.2214C15.6188 25.928 15.2983 28.9048 15.9353 31.7757C16.5724 34.6466 18.1384 37.2827 20.4354 39.351C22.7325 41.4193 25.6576 42.8269 28.8412 43.396C32.0247 43.9651 35.3237 43.6701 38.3215 42.5484C41.3193 41.4266 43.8812 39.5284 45.6836 37.0936C47.486 34.6588 48.448 31.7967 48.448 28.8688C48.4522 26.9205 48.0295 24.9906 47.204 23.1902C46.3785 21.3898 45.1666 19.7544 43.638 18.378C42.1094 17.0017 40.2942 15.9116 38.297 15.1704C36.2997 14.4291 34.1597 14.0515 32 14.0591ZM32 38.4821C29.8924 38.4821 27.8322 37.9183 26.0798 36.862C24.3275 35.8057 22.9617 34.3043 22.1551 32.5477C21.3486 30.7911 21.1376 28.8581 21.5488 26.9933C21.9599 25.1285 22.9748 23.4156 24.4651 22.0712C25.9553 20.7267 27.8541 19.8111 29.9211 19.4402C31.9882 19.0693 34.1307 19.2597 36.0779 19.9873C38.025 20.7149 39.6892 21.947 40.8601 23.5279C42.031 25.1088 42.656 26.9675 42.656 28.8688C42.656 30.1312 42.3804 31.3813 41.8449 32.5477C41.3093 33.714 40.5244 34.7738 39.5349 35.6664C38.5454 36.5591 37.3707 37.2672 36.0779 37.7503C34.785 38.2335 33.3994 38.4821 32 38.4821Z" fill="#3FBF6A"/>
</svg>
