<svg width="64" height="58" viewBox="0 0 64 58" fill="none" xmlns="http://www.w3.org/2000/svg">
<path d="M0 6.70689C0 4.76283 0.720741 3.15901 2.16216 1.89543C3.60358 0.631789 5.4775 0 7.78378 0C10.0489 0 11.8816 0.62205 13.2819 1.86627C14.7233 3.14932 15.444 4.82115 15.444 6.88186C15.444 8.74812 14.7439 10.3033 13.3436 11.5475C11.9022 12.8306 10.0077 13.4721 7.66023 13.4721H7.59846C5.33331 13.4721 3.50066 12.8306 2.10039 11.5475C0.700108 10.2645 0 8.6509 0 6.70689ZM0.803089 57.7376V18.7793H14.5174V57.7376H0.803089ZM22.1158 57.7376H35.8301V35.9839C35.8301 34.6231 35.9949 33.5733 36.3243 32.8346C36.9009 31.5127 37.7761 30.3948 38.9498 29.4812C40.1236 28.5675 41.5959 28.1106 43.3668 28.1106C47.9794 28.1106 50.2857 31.0461 50.2857 36.9171V57.7376H64V35.4007C64 29.6464 62.5586 25.2821 59.6757 22.3077C56.7928 19.3334 52.9833 17.8462 48.2471 17.8462C42.9344 17.8462 38.7954 20.004 35.8301 24.3198V24.4364H35.7683L35.8301 24.3198V18.7793H22.1158C22.1982 20.0235 22.2394 23.8921 22.2394 30.3851C22.2394 36.8782 22.1982 45.9956 22.1158 57.7376Z" fill="#3FBF6A"/>
</svg>
