<svg width="65" height="48" viewBox="0 0 65 48" fill="none" xmlns="http://www.w3.org/2000/svg">
<path d="M65 6.34837C62.5571 7.28796 59.9736 7.90909 57.33 8.19243C60.1191 6.71522 62.2091 4.39131 63.2125 1.65179C60.5915 3.03501 57.7225 4.00958 54.73 4.53313C52.7298 2.61004 50.0661 1.32993 47.1569 0.893565C44.2476 0.457201 41.2573 0.889263 38.6548 2.12199C36.0524 3.35472 33.985 5.31838 32.777 7.70501C31.569 10.0916 31.2887 12.7662 31.98 15.3093C26.6806 15.0717 21.4969 13.8484 16.7656 11.7188C12.0343 9.58921 7.86125 6.60104 4.5175 2.94839C3.3447 4.76412 2.72844 6.8204 2.73 8.91276C2.72584 10.8559 3.26371 12.7698 4.2957 14.484C5.3277 16.1983 6.82181 17.6597 8.645 18.7381C6.52593 18.687 4.45213 18.1829 2.6 17.2686V17.4127C2.61588 20.1353 3.69198 22.7694 5.64627 24.8695C7.60056 26.9697 10.3131 28.4069 13.325 28.9381C12.1656 29.2509 10.9618 29.4158 9.75 29.4279C8.91114 29.4192 8.07437 29.3518 7.2475 29.2262C8.10521 31.5682 9.76502 33.6149 11.996 35.0816C14.227 36.5482 16.9181 37.3618 19.695 37.4092C15.0059 40.6803 9.21662 42.4655 3.25 42.4804C2.16364 42.4835 1.07814 42.4258 0 42.3075C6.09189 45.7947 13.1911 47.6458 20.4425 47.638C25.4465 47.684 30.4107 46.8457 35.0451 45.1718C39.6796 43.4979 43.8913 41.0221 47.4344 37.8889C50.9775 34.7558 53.7809 31.0282 55.6808 26.9237C57.5807 22.8193 58.5391 18.4204 58.5 13.9839C58.5 13.4941 58.5 12.9755 58.5 12.4568C61.0503 10.7707 63.2498 8.70365 65 6.34837Z" fill="#3FBF6A"/>
</svg>
